<mxfile host="app.diagrams.net" agent="Mozilla/5.0 (Windows NT 10.0; Win64; x64) AppleWebKit/537.36 (KHTML, like Gecko) Chrome/138.0.0.0 Safari/537.36" version="28.0.6">
  <diagram name="PÃ¡gina-1" id="PuR6PXavX1iiZgIphFz7">
    <mxGraphModel grid="1" page="1" gridSize="10" guides="1" tooltips="1" connect="1" arrows="1" fold="1" pageScale="1" pageWidth="827" pageHeight="1169" math="0" shadow="0">
      <root>
        <mxCell id="0" />
        <mxCell id="1" parent="0" />
        <mxCell id="wnuGWgDGQfipznTXfZxU-3" value="" style="shape=partialRectangle;whiteSpace=wrap;html=1;top=0;bottom=0;fillColor=none;rotation=90;" vertex="1" parent="1">
          <mxGeometry x="146.87" y="240" width="65" height="120" as="geometry" />
        </mxCell>
        <mxCell id="wnuGWgDGQfipznTXfZxU-6" value="" style="endArrow=none;html=1;rounded=0;exitX=1;exitY=0;exitDx=0;exitDy=0;" edge="1" parent="1" source="wnuGWgDGQfipznTXfZxU-3">
          <mxGeometry width="50" height="50" relative="1" as="geometry">
            <mxPoint x="283.12" y="306.25" as="sourcePoint" />
            <mxPoint x="273.12" y="296.25" as="targetPoint" />
          </mxGeometry>
        </mxCell>
        <mxCell id="wnuGWgDGQfipznTXfZxU-8" value="" style="endArrow=none;html=1;rounded=0;exitX=0;exitY=0;exitDx=0;exitDy=0;" edge="1" parent="1" source="wnuGWgDGQfipznTXfZxU-3">
          <mxGeometry width="50" height="50" relative="1" as="geometry">
            <mxPoint x="283.12" y="258.25" as="sourcePoint" />
            <mxPoint x="273.12" y="296.25" as="targetPoint" />
          </mxGeometry>
        </mxCell>
        <mxCell id="wnuGWgDGQfipznTXfZxU-11" value="" style="endArrow=none;html=1;rounded=0;entryX=1;entryY=1;entryDx=0;entryDy=0;" edge="1" parent="1" target="wnuGWgDGQfipznTXfZxU-3">
          <mxGeometry width="50" height="50" relative="1" as="geometry">
            <mxPoint x="86.87" y="300" as="sourcePoint" />
            <mxPoint x="110.12" y="328.25" as="targetPoint" />
          </mxGeometry>
        </mxCell>
        <mxCell id="wnuGWgDGQfipznTXfZxU-12" value="" style="endArrow=none;html=1;rounded=0;entryX=0;entryY=1;entryDx=0;entryDy=0;" edge="1" parent="1" target="wnuGWgDGQfipznTXfZxU-3">
          <mxGeometry width="50" height="50" relative="1" as="geometry">
            <mxPoint x="86.87" y="300" as="sourcePoint" />
            <mxPoint x="110.12" y="270" as="targetPoint" />
          </mxGeometry>
        </mxCell>
        <mxCell id="wnuGWgDGQfipznTXfZxU-13" value="" style="shape=partialRectangle;whiteSpace=wrap;html=1;top=0;bottom=0;fillColor=none;rotation=90;" vertex="1" parent="1">
          <mxGeometry x="356.87" y="240" width="65" height="120" as="geometry" />
        </mxCell>
        <mxCell id="wnuGWgDGQfipznTXfZxU-14" value="" style="endArrow=none;html=1;rounded=0;exitX=1;exitY=0;exitDx=0;exitDy=0;" edge="1" parent="1" source="wnuGWgDGQfipznTXfZxU-13">
          <mxGeometry width="50" height="50" relative="1" as="geometry">
            <mxPoint x="493.12" y="306.25" as="sourcePoint" />
            <mxPoint x="483.12" y="296.25" as="targetPoint" />
          </mxGeometry>
        </mxCell>
        <mxCell id="wnuGWgDGQfipznTXfZxU-15" value="" style="endArrow=none;html=1;rounded=0;exitX=0;exitY=0;exitDx=0;exitDy=0;" edge="1" parent="1" source="wnuGWgDGQfipznTXfZxU-13">
          <mxGeometry width="50" height="50" relative="1" as="geometry">
            <mxPoint x="493.12" y="258.25" as="sourcePoint" />
            <mxPoint x="483.12" y="296.25" as="targetPoint" />
          </mxGeometry>
        </mxCell>
        <mxCell id="wnuGWgDGQfipznTXfZxU-16" value="" style="endArrow=none;html=1;rounded=0;entryX=1;entryY=1;entryDx=0;entryDy=0;" edge="1" parent="1" target="wnuGWgDGQfipznTXfZxU-13">
          <mxGeometry width="50" height="50" relative="1" as="geometry">
            <mxPoint x="296.87" y="300" as="sourcePoint" />
            <mxPoint x="320.12" y="328.25" as="targetPoint" />
          </mxGeometry>
        </mxCell>
        <mxCell id="wnuGWgDGQfipznTXfZxU-17" value="" style="endArrow=none;html=1;rounded=0;entryX=0;entryY=1;entryDx=0;entryDy=0;" edge="1" parent="1" target="wnuGWgDGQfipznTXfZxU-13">
          <mxGeometry width="50" height="50" relative="1" as="geometry">
            <mxPoint x="296.87" y="300" as="sourcePoint" />
            <mxPoint x="320.12" y="270" as="targetPoint" />
          </mxGeometry>
        </mxCell>
        <mxCell id="wnuGWgDGQfipznTXfZxU-23" value="&lt;font style=&quot;vertical-align: inherit;&quot;&gt;&lt;font style=&quot;vertical-align: inherit;&quot;&gt;Idle&lt;/font&gt;&lt;/font&gt;" style="text;html=1;align=center;verticalAlign=middle;whiteSpace=wrap;rounded=0;" vertex="1" parent="1">
          <mxGeometry x="16.87" y="285" width="60" height="30" as="geometry" />
        </mxCell>
        <mxCell id="wnuGWgDGQfipznTXfZxU-24" value="" style="shape=partialRectangle;whiteSpace=wrap;html=1;top=0;bottom=0;fillColor=none;rotation=90;" vertex="1" parent="1">
          <mxGeometry x="159" y="381.25" width="65" height="122.5" as="geometry" />
        </mxCell>
        <mxCell id="wnuGWgDGQfipznTXfZxU-25" value="" style="endArrow=none;html=1;rounded=0;exitX=1;exitY=0;exitDx=0;exitDy=0;" edge="1" parent="1" source="wnuGWgDGQfipznTXfZxU-24">
          <mxGeometry width="50" height="50" relative="1" as="geometry">
            <mxPoint x="294" y="448.75" as="sourcePoint" />
            <mxPoint x="284" y="438.75" as="targetPoint" />
          </mxGeometry>
        </mxCell>
        <mxCell id="wnuGWgDGQfipznTXfZxU-26" value="" style="endArrow=none;html=1;rounded=0;exitX=0;exitY=0;exitDx=0;exitDy=0;" edge="1" parent="1" source="wnuGWgDGQfipznTXfZxU-24">
          <mxGeometry width="50" height="50" relative="1" as="geometry">
            <mxPoint x="294" y="400.75" as="sourcePoint" />
            <mxPoint x="284" y="438.75" as="targetPoint" />
          </mxGeometry>
        </mxCell>
        <mxCell id="wnuGWgDGQfipznTXfZxU-27" value="" style="endArrow=none;html=1;rounded=0;entryX=1;entryY=1;entryDx=0;entryDy=0;" edge="1" parent="1" target="wnuGWgDGQfipznTXfZxU-24">
          <mxGeometry width="50" height="50" relative="1" as="geometry">
            <mxPoint x="97.75" y="442.5" as="sourcePoint" />
            <mxPoint x="121" y="470.75" as="targetPoint" />
          </mxGeometry>
        </mxCell>
        <mxCell id="wnuGWgDGQfipznTXfZxU-28" value="" style="endArrow=none;html=1;rounded=0;entryX=0;entryY=1;entryDx=0;entryDy=0;" edge="1" parent="1" target="wnuGWgDGQfipznTXfZxU-24">
          <mxGeometry width="50" height="50" relative="1" as="geometry">
            <mxPoint x="97.75" y="442.5" as="sourcePoint" />
            <mxPoint x="121" y="412.5" as="targetPoint" />
          </mxGeometry>
        </mxCell>
        <mxCell id="wnuGWgDGQfipznTXfZxU-39" value="&lt;font style=&quot;vertical-align: inherit;&quot;&gt;&lt;font style=&quot;vertical-align: inherit;&quot;&gt;Idle&lt;/font&gt;&lt;/font&gt;" style="text;html=1;align=center;verticalAlign=middle;whiteSpace=wrap;rounded=0;" vertex="1" parent="1">
          <mxGeometry x="16.870000000000005" y="427.5" width="60" height="30" as="geometry" />
        </mxCell>
        <mxCell id="wnuGWgDGQfipznTXfZxU-58" value="" style="endArrow=classic;html=1;rounded=0;" edge="1" parent="1">
          <mxGeometry width="50" height="50" relative="1" as="geometry">
            <mxPoint x="270" y="300" as="sourcePoint" />
            <mxPoint x="296.87" y="299.82000000000005" as="targetPoint" />
          </mxGeometry>
        </mxCell>
        <mxCell id="wnuGWgDGQfipznTXfZxU-59" value="" style="endArrow=classic;html=1;rounded=0;entryX=0;entryY=0.5;entryDx=0;entryDy=0;" edge="1" parent="1" target="rd3ffc8TigZeUYMoxWfR-2">
          <mxGeometry width="50" height="50" relative="1" as="geometry">
            <mxPoint x="280" y="440" as="sourcePoint" />
            <mxPoint x="310" y="440.41" as="targetPoint" />
            <Array as="points">
              <mxPoint x="302.25" y="440.09" />
            </Array>
          </mxGeometry>
        </mxCell>
        <mxCell id="wnuGWgDGQfipznTXfZxU-63" value="" style="endArrow=classic;html=1;rounded=0;" edge="1" parent="1">
          <mxGeometry width="50" height="50" relative="1" as="geometry">
            <mxPoint x="67.75" y="441.90999999999997" as="sourcePoint" />
            <mxPoint x="97.75" y="442.32000000000005" as="targetPoint" />
          </mxGeometry>
        </mxCell>
        <mxCell id="wnuGWgDGQfipznTXfZxU-64" value="" style="endArrow=classic;html=1;rounded=0;" edge="1" parent="1">
          <mxGeometry width="50" height="50" relative="1" as="geometry">
            <mxPoint x="56.87" y="299.40999999999997" as="sourcePoint" />
            <mxPoint x="86.87" y="299.82000000000005" as="targetPoint" />
          </mxGeometry>
        </mxCell>
        <mxCell id="wnuGWgDGQfipznTXfZxU-65" value="&lt;font style=&quot;vertical-align: inherit;&quot;&gt;&lt;font style=&quot;vertical-align: inherit;&quot;&gt;&lt;font style=&quot;vertical-align: inherit;&quot;&gt;&lt;font style=&quot;vertical-align: inherit;&quot;&gt;&lt;font style=&quot;vertical-align: inherit;&quot;&gt;&lt;font style=&quot;vertical-align: inherit;&quot;&gt;&lt;font style=&quot;vertical-align: inherit;&quot;&gt;&lt;font style=&quot;vertical-align: inherit;&quot;&gt;Comentarios&lt;/font&gt;&lt;/font&gt;&lt;/font&gt;&lt;/font&gt;&lt;/font&gt;&lt;/font&gt;&lt;/font&gt;&lt;/font&gt;" style="shape=umlFrame;whiteSpace=wrap;html=1;pointerEvents=0;width=90;height=30;" vertex="1" parent="1">
          <mxGeometry x="-170" y="180" width="900" height="520" as="geometry" />
        </mxCell>
        <mxCell id="wnuGWgDGQfipznTXfZxU-66" value="&lt;span style=&quot;text-align: left;&quot;&gt;&lt;font style=&quot;vertical-align: inherit;&quot;&gt;&lt;font style=&quot;vertical-align: inherit;&quot;&gt;Escribir Comentario&lt;/font&gt;&lt;/font&gt;&lt;/span&gt;" style="text;html=1;align=center;verticalAlign=middle;whiteSpace=wrap;rounded=0;" vertex="1" parent="1">
          <mxGeometry x="149.37" y="285" width="60" height="30" as="geometry" />
        </mxCell>
        <mxCell id="wnuGWgDGQfipznTXfZxU-67" value="&lt;span style=&quot;text-align: left;&quot;&gt;&lt;font style=&quot;vertical-align: inherit;&quot;&gt;&lt;font style=&quot;vertical-align: inherit;&quot;&gt;Pendiente&lt;/font&gt;&lt;/font&gt;&lt;/span&gt;" style="text;html=1;align=center;verticalAlign=middle;whiteSpace=wrap;rounded=0;" vertex="1" parent="1">
          <mxGeometry x="361.87" y="285" width="60" height="30" as="geometry" />
        </mxCell>
        <mxCell id="wnuGWgDGQfipznTXfZxU-69" value="&lt;span style=&quot;text-align: left;&quot;&gt;&lt;font style=&quot;vertical-align: inherit;&quot;&gt;&lt;font style=&quot;vertical-align: inherit;&quot;&gt;Revisar Comentario&lt;/font&gt;&lt;/font&gt;&lt;/span&gt;" style="text;html=1;align=center;verticalAlign=middle;whiteSpace=wrap;rounded=0;" vertex="1" parent="1">
          <mxGeometry x="160.25" y="427.5" width="60" height="30" as="geometry" />
        </mxCell>
        <mxCell id="wnuGWgDGQfipznTXfZxU-77" value="{d â¤ 24h}" style="text;whiteSpace=wrap;html=1;" vertex="1" parent="1">
          <mxGeometry x="548.13" y="320" width="51.25" height="40" as="geometry" />
        </mxCell>
        <mxCell id="wnuGWgDGQfipznTXfZxU-85" value="&lt;font style=&quot;vertical-align: inherit;&quot;&gt;&lt;font style=&quot;vertical-align: inherit;&quot;&gt;Usuario&lt;/font&gt;&lt;/font&gt;" style="text;html=1;align=center;verticalAlign=middle;whiteSpace=wrap;rounded=0;" vertex="1" parent="1">
          <mxGeometry x="-90" y="285" width="60" height="30" as="geometry" />
        </mxCell>
        <mxCell id="rd3ffc8TigZeUYMoxWfR-1" value="&lt;font style=&quot;vertical-align: inherit;&quot;&gt;&lt;font style=&quot;vertical-align: inherit;&quot;&gt;Administrador&lt;/font&gt;&lt;/font&gt;" style="text;html=1;align=center;verticalAlign=middle;whiteSpace=wrap;rounded=0;" vertex="1" parent="1">
          <mxGeometry x="-100" y="427.5" width="80" height="30" as="geometry" />
        </mxCell>
        <mxCell id="rd3ffc8TigZeUYMoxWfR-17" style="rounded=0;orthogonalLoop=1;jettySize=auto;html=1;exitX=1;exitY=0.5;exitDx=0;exitDy=0;" edge="1" parent="1" source="rd3ffc8TigZeUYMoxWfR-2">
          <mxGeometry relative="1" as="geometry">
            <mxPoint x="480" y="390" as="targetPoint" />
          </mxGeometry>
        </mxCell>
        <mxCell id="rd3ffc8TigZeUYMoxWfR-18" style="rounded=0;orthogonalLoop=1;jettySize=auto;html=1;" edge="1" parent="1" source="rd3ffc8TigZeUYMoxWfR-2">
          <mxGeometry relative="1" as="geometry">
            <mxPoint x="480" y="520" as="targetPoint" />
          </mxGeometry>
        </mxCell>
        <mxCell id="rd3ffc8TigZeUYMoxWfR-2" value="" style="rhombus;whiteSpace=wrap;html=1;" vertex="1" parent="1">
          <mxGeometry x="320" y="402.5" width="80" height="80" as="geometry" />
        </mxCell>
        <mxCell id="rd3ffc8TigZeUYMoxWfR-4" value="" style="shape=partialRectangle;whiteSpace=wrap;html=1;top=0;bottom=0;fillColor=none;rotation=90;" vertex="1" parent="1">
          <mxGeometry x="541.25" y="330" width="65" height="122.5" as="geometry" />
        </mxCell>
        <mxCell id="rd3ffc8TigZeUYMoxWfR-5" value="" style="endArrow=none;html=1;rounded=0;exitX=1;exitY=0;exitDx=0;exitDy=0;" edge="1" parent="1" source="rd3ffc8TigZeUYMoxWfR-4">
          <mxGeometry width="50" height="50" relative="1" as="geometry">
            <mxPoint x="676.25" y="397.5" as="sourcePoint" />
            <mxPoint x="666.25" y="387.5" as="targetPoint" />
          </mxGeometry>
        </mxCell>
        <mxCell id="rd3ffc8TigZeUYMoxWfR-6" value="" style="endArrow=none;html=1;rounded=0;exitX=0;exitY=0;exitDx=0;exitDy=0;" edge="1" parent="1" source="rd3ffc8TigZeUYMoxWfR-4">
          <mxGeometry width="50" height="50" relative="1" as="geometry">
            <mxPoint x="676.25" y="349.5" as="sourcePoint" />
            <mxPoint x="666.25" y="387.5" as="targetPoint" />
          </mxGeometry>
        </mxCell>
        <mxCell id="rd3ffc8TigZeUYMoxWfR-7" value="" style="endArrow=none;html=1;rounded=0;entryX=1;entryY=1;entryDx=0;entryDy=0;" edge="1" parent="1" target="rd3ffc8TigZeUYMoxWfR-4">
          <mxGeometry width="50" height="50" relative="1" as="geometry">
            <mxPoint x="480" y="391.25" as="sourcePoint" />
            <mxPoint x="503.25" y="419.5" as="targetPoint" />
          </mxGeometry>
        </mxCell>
        <mxCell id="rd3ffc8TigZeUYMoxWfR-8" value="" style="endArrow=none;html=1;rounded=0;entryX=0;entryY=1;entryDx=0;entryDy=0;" edge="1" parent="1" target="rd3ffc8TigZeUYMoxWfR-4">
          <mxGeometry width="50" height="50" relative="1" as="geometry">
            <mxPoint x="480" y="391.25" as="sourcePoint" />
            <mxPoint x="503.25" y="361.25" as="targetPoint" />
          </mxGeometry>
        </mxCell>
        <mxCell id="rd3ffc8TigZeUYMoxWfR-9" value="&lt;span style=&quot;text-align: left;&quot;&gt;&lt;font style=&quot;vertical-align: inherit;&quot;&gt;&lt;font style=&quot;vertical-align: inherit;&quot;&gt;Seleccionado&lt;/font&gt;&lt;/font&gt;&lt;/span&gt;" style="text;html=1;align=center;verticalAlign=middle;whiteSpace=wrap;rounded=0;" vertex="1" parent="1">
          <mxGeometry x="542.5" y="376.25" width="60" height="30" as="geometry" />
        </mxCell>
        <mxCell id="rd3ffc8TigZeUYMoxWfR-10" value="" style="shape=partialRectangle;whiteSpace=wrap;html=1;top=0;bottom=0;fillColor=none;rotation=90;" vertex="1" parent="1">
          <mxGeometry x="541.88" y="457.5" width="65" height="122.5" as="geometry" />
        </mxCell>
        <mxCell id="rd3ffc8TigZeUYMoxWfR-11" value="" style="endArrow=none;html=1;rounded=0;exitX=1;exitY=0;exitDx=0;exitDy=0;" edge="1" parent="1" source="rd3ffc8TigZeUYMoxWfR-10">
          <mxGeometry width="50" height="50" relative="1" as="geometry">
            <mxPoint x="676.88" y="525" as="sourcePoint" />
            <mxPoint x="666.88" y="515" as="targetPoint" />
          </mxGeometry>
        </mxCell>
        <mxCell id="rd3ffc8TigZeUYMoxWfR-12" value="" style="endArrow=none;html=1;rounded=0;exitX=0;exitY=0;exitDx=0;exitDy=0;" edge="1" parent="1" source="rd3ffc8TigZeUYMoxWfR-10">
          <mxGeometry width="50" height="50" relative="1" as="geometry">
            <mxPoint x="676.88" y="477" as="sourcePoint" />
            <mxPoint x="666.88" y="515" as="targetPoint" />
          </mxGeometry>
        </mxCell>
        <mxCell id="rd3ffc8TigZeUYMoxWfR-13" value="" style="endArrow=none;html=1;rounded=0;entryX=1;entryY=1;entryDx=0;entryDy=0;" edge="1" parent="1" target="rd3ffc8TigZeUYMoxWfR-10">
          <mxGeometry width="50" height="50" relative="1" as="geometry">
            <mxPoint x="480.63" y="518.75" as="sourcePoint" />
            <mxPoint x="503.88" y="547" as="targetPoint" />
          </mxGeometry>
        </mxCell>
        <mxCell id="rd3ffc8TigZeUYMoxWfR-14" value="" style="endArrow=none;html=1;rounded=0;entryX=0;entryY=1;entryDx=0;entryDy=0;" edge="1" parent="1" target="rd3ffc8TigZeUYMoxWfR-10">
          <mxGeometry width="50" height="50" relative="1" as="geometry">
            <mxPoint x="480.63" y="518.75" as="sourcePoint" />
            <mxPoint x="503.88" y="488.75" as="targetPoint" />
          </mxGeometry>
        </mxCell>
        <mxCell id="rd3ffc8TigZeUYMoxWfR-15" value="&lt;span style=&quot;text-align: left;&quot;&gt;&lt;font style=&quot;vertical-align: inherit;&quot;&gt;&lt;font style=&quot;vertical-align: inherit;&quot;&gt;Rechazado&lt;/font&gt;&lt;/font&gt;&lt;/span&gt;" style="text;html=1;align=center;verticalAlign=middle;whiteSpace=wrap;rounded=0;" vertex="1" parent="1">
          <mxGeometry x="543.13" y="503.75" width="60" height="30" as="geometry" />
        </mxCell>
        <mxCell id="rd3ffc8TigZeUYMoxWfR-16" value="{d â¤ 24h}" style="text;whiteSpace=wrap;html=1;" vertex="1" parent="1">
          <mxGeometry x="546.88" y="442.5" width="51.25" height="40" as="geometry" />
        </mxCell>
        <mxCell id="rd3ffc8TigZeUYMoxWfR-19" value="" style="shape=partialRectangle;whiteSpace=wrap;html=1;top=0;bottom=0;fillColor=none;rotation=90;" vertex="1" parent="1">
          <mxGeometry x="146.87" y="560" width="65" height="120" as="geometry" />
        </mxCell>
        <mxCell id="rd3ffc8TigZeUYMoxWfR-20" value="" style="endArrow=none;html=1;rounded=0;exitX=1;exitY=0;exitDx=0;exitDy=0;" edge="1" parent="1" source="rd3ffc8TigZeUYMoxWfR-19">
          <mxGeometry width="50" height="50" relative="1" as="geometry">
            <mxPoint x="283.12" y="626.25" as="sourcePoint" />
            <mxPoint x="273.12" y="616.25" as="targetPoint" />
          </mxGeometry>
        </mxCell>
        <mxCell id="rd3ffc8TigZeUYMoxWfR-21" value="" style="endArrow=none;html=1;rounded=0;exitX=0;exitY=0;exitDx=0;exitDy=0;" edge="1" parent="1" source="rd3ffc8TigZeUYMoxWfR-19">
          <mxGeometry width="50" height="50" relative="1" as="geometry">
            <mxPoint x="283.12" y="578.25" as="sourcePoint" />
            <mxPoint x="273.12" y="616.25" as="targetPoint" />
          </mxGeometry>
        </mxCell>
        <mxCell id="rd3ffc8TigZeUYMoxWfR-22" value="" style="endArrow=none;html=1;rounded=0;entryX=1;entryY=1;entryDx=0;entryDy=0;" edge="1" parent="1" target="rd3ffc8TigZeUYMoxWfR-19">
          <mxGeometry width="50" height="50" relative="1" as="geometry">
            <mxPoint x="86.87" y="620" as="sourcePoint" />
            <mxPoint x="110.12" y="648.25" as="targetPoint" />
          </mxGeometry>
        </mxCell>
        <mxCell id="rd3ffc8TigZeUYMoxWfR-23" value="" style="endArrow=none;html=1;rounded=0;entryX=0;entryY=1;entryDx=0;entryDy=0;" edge="1" parent="1" target="rd3ffc8TigZeUYMoxWfR-19">
          <mxGeometry width="50" height="50" relative="1" as="geometry">
            <mxPoint x="86.87" y="620" as="sourcePoint" />
            <mxPoint x="110.12" y="590" as="targetPoint" />
          </mxGeometry>
        </mxCell>
        <mxCell id="rd3ffc8TigZeUYMoxWfR-26" value="&lt;span style=&quot;text-align: left;&quot;&gt;&lt;font style=&quot;vertical-align: inherit;&quot;&gt;&lt;font style=&quot;vertical-align: inherit;&quot;&gt;Notificar Estado&lt;/font&gt;&lt;/font&gt;&lt;/span&gt;" style="text;html=1;align=center;verticalAlign=middle;whiteSpace=wrap;rounded=0;" vertex="1" parent="1">
          <mxGeometry x="149.37" y="605" width="60" height="30" as="geometry" />
        </mxCell>
        <mxCell id="rd3ffc8TigZeUYMoxWfR-27" value="&lt;font style=&quot;vertical-align: inherit;&quot;&gt;&lt;font style=&quot;vertical-align: inherit;&quot;&gt;Sistema&lt;/font&gt;&lt;/font&gt;" style="text;html=1;align=center;verticalAlign=middle;whiteSpace=wrap;rounded=0;" vertex="1" parent="1">
          <mxGeometry x="-90" y="605" width="60" height="30" as="geometry" />
        </mxCell>
        <mxCell id="rd3ffc8TigZeUYMoxWfR-28" value="" style="endArrow=classic;html=1;rounded=0;edgeStyle=orthogonalEdgeStyle;" edge="1" parent="1">
          <mxGeometry width="50" height="50" relative="1" as="geometry">
            <mxPoint x="660" y="390" as="sourcePoint" />
            <mxPoint x="240" y="590" as="targetPoint" />
            <Array as="points">
              <mxPoint x="700" y="390" />
              <mxPoint x="700" y="590" />
            </Array>
          </mxGeometry>
        </mxCell>
        <mxCell id="rd3ffc8TigZeUYMoxWfR-29" value="" style="endArrow=classic;html=1;rounded=0;edgeStyle=orthogonalEdgeStyle;" edge="1" parent="1">
          <mxGeometry width="50" height="50" relative="1" as="geometry">
            <mxPoint x="660" y="518" as="sourcePoint" />
            <mxPoint x="240" y="651" as="targetPoint" />
            <Array as="points">
              <mxPoint x="690" y="518" />
              <mxPoint x="690" y="651" />
            </Array>
          </mxGeometry>
        </mxCell>
      </root>
    </mxGraphModel>
  </diagram>
</mxfile>
